<?xml version="1.0" encoding="UTF-8"?>
<svg version="1.1" xmlns="http://www.w3.org/2000/svg" width="512" height="512">
<path d="M0 0 C1.64040475 -0.00407174 3.28080674 -0.00941698 4.92120361 -0.01593018 C9.35096285 -0.02953801 13.78051109 -0.02433228 18.21027374 -0.01479292 C22.86072836 -0.00716231 27.51116572 -0.01425134 32.16162109 -0.01895142 C39.96910829 -0.0243991 47.77651016 -0.01724333 55.58398438 -0.00292969 C64.59199804 0.01339492 73.59980796 0.00810571 82.6078167 -0.0084089 C90.3618436 -0.02205197 98.1158094 -0.02392967 105.86984444 -0.0160929 C110.4922634 -0.01143186 115.1145868 -0.01074813 119.73699951 -0.02070236 C124.08408834 -0.02941091 128.43091616 -0.02327959 132.77797699 -0.00601959 C134.36698729 -0.00207542 135.9560198 -0.00315304 137.54502106 -0.00980759 C158.68609386 -0.09013618 158.68609386 -0.09013618 166.4765625 6.95068359 C167.17523438 7.55009766 167.87390625 8.14951172 168.59375 8.76708984 C175.43026825 17.69180531 175.17186927 27.56391485 175.10327148 38.27734375 C175.1070603 39.970255 175.11256497 41.66316315 175.11964417 43.35606384 C175.13354053 47.92831037 175.12247108 52.50017815 175.10593295 57.07240343 C175.09202599 61.86926562 175.09854877 66.66610708 175.10206604 71.46298218 C175.10476319 79.51428289 175.09133345 87.56543409 175.06811523 95.61669922 C175.04149056 104.91332087 175.03976601 114.20969294 175.0515036 123.50633967 C175.06229626 132.46794669 175.05608379 141.4294638 175.04194832 150.39106369 C175.03620326 154.19709789 175.03625949 158.00306597 175.04101372 161.8091011 C175.04579902 166.29244408 175.03561769 170.77551497 175.01405907 175.25880623 C175.00851282 176.9002535 175.00800596 178.54172703 175.01301193 180.18317604 C175.03809963 189.59177544 175.01224765 197.27215587 169.6015625 205.38818359 C170.65677094 205.37930115 171.71197937 205.3704187 172.79916382 205.36126709 C182.77353403 205.27996276 192.74783645 205.22011362 202.72246361 205.18093491 C207.84978489 205.16011513 212.97683732 205.13190045 218.10400391 205.08642578 C223.05774175 205.04276736 228.011222 205.01900435 232.96513748 205.00867462 C234.84927039 205.00131902 236.73339018 204.98695564 238.61741257 204.96526337 C250.13560353 204.83799373 258.96128759 205.12838459 268.9140625 211.51318359 C277.28262528 220.46559959 277.32040378 230.06031854 277.23266602 241.64453125 C277.23781165 243.37685375 277.24509777 245.109171 277.25434875 246.84147644 C277.27278622 251.5212234 277.25997392 256.20039706 277.24025846 260.8801198 C277.22381241 265.78909445 277.23269287 270.69803449 277.23777771 275.60702515 C277.24229117 283.8466706 277.22647312 292.08608848 277.19848633 300.32568359 C277.16641657 309.84048359 277.16646088 319.35487376 277.1837011 328.86970294 C277.19958331 338.04063259 277.19282309 347.21141253 277.17576408 356.38233566 C277.16890658 360.27770365 277.16991259 364.17295117 277.17730904 368.06831741 C277.18498961 372.65679303 277.17278808 377.24480398 277.14546013 381.83320045 C277.13859458 383.51334441 277.13845864 385.19353191 277.14567566 386.87367439 C277.19128022 398.8766014 276.12496964 406.24905061 267.49661255 415.0352478 C266.83160736 415.69215607 266.16660217 416.34906433 265.48144531 417.02587891 C264.41719833 418.1006398 264.41719833 418.1006398 263.33145142 419.19711304 C260.99911126 421.54696141 258.65255936 423.8819865 256.3046875 426.21630859 C254.66988629 427.85380674 253.03567906 429.49189807 251.40203857 431.1305542 C247.98217214 434.55630603 244.55520612 437.97474897 241.12304688 441.38818359 C236.73369434 445.75474804 232.36254517 450.13902531 227.99657059 454.52894974 C224.62712025 457.91288347 221.24816433 461.28719614 217.86629486 464.65871429 C216.2510932 466.27125574 214.63883519 467.88675147 213.0296402 469.50528717 C210.77574284 471.76939117 208.50933301 474.02019836 206.23925781 476.26806641 C205.58234955 476.93307159 204.92544128 477.59807678 204.24862671 478.28323364 C196.36985434 486.0204674 189.02277072 488.54224538 178.04426575 488.52862549 C177.29159209 488.53159661 176.53891844 488.53456773 175.7634365 488.53762889 C173.24568136 488.54628845 170.72797392 488.54782182 168.21020508 488.54931641 C166.4030548 488.55394656 164.5959055 488.55897148 162.78875732 488.56436157 C157.88151404 488.57746942 152.97428443 488.58392749 148.06702638 488.58837223 C144.99897914 488.59130583 141.93093561 488.59541121 138.86289024 488.5998764 C129.2573787 488.61354768 119.65187567 488.62321589 110.04635507 488.62707829 C98.97010216 488.63155691 87.89397278 488.6490973 76.81775743 488.67807889 C68.24856656 488.69971985 59.67941038 488.70978388 51.11019248 488.71111941 C45.9958408 488.7121658 40.88160531 488.71803806 35.76728249 488.73593903 C30.95327324 488.75246123 26.13946701 488.75455509 21.32543945 488.74580002 C19.56387983 488.74503184 17.8023091 488.74934332 16.04077721 488.75925827 C6.14112943 488.81168731 -3.11126553 488.83115872 -12.0234375 483.95068359 C-15.46882242 483.13467138 -17.37246004 484.59461223 -20.3359375 486.34521484 C-24.97067378 488.68891671 -29.91345958 488.53489531 -35.00042725 488.52862549 C-35.75789002 488.53159661 -36.51535279 488.53456773 -37.29576898 488.53762889 C-39.82967756 488.54628887 -42.36353874 488.54782185 -44.89746094 488.54931641 C-46.71608582 488.55394649 -48.53470973 488.55897141 -50.35333252 488.56436157 C-55.29149941 488.57746916 -60.22965272 488.58392732 -65.16783428 488.58837223 C-68.2546348 488.59130557 -71.34143163 488.59541088 -74.42823029 488.5998764 C-84.09087092 488.61354694 -93.75350308 488.6232158 -103.41615272 488.62707829 C-114.5614659 488.63155824 -125.7066564 488.6491051 -136.85193229 488.67807889 C-145.47291176 488.69971069 -154.09385675 488.70978338 -162.71486306 488.71111941 C-167.8610406 488.71216635 -173.00710274 488.71805062 -178.15325165 488.73593903 C-182.99598459 488.75244561 -187.8385157 488.75456263 -192.68126678 488.74580002 C-194.45453432 488.74503103 -196.22781282 488.74935402 -198.00105286 488.75925827 C-220.66936296 488.87840286 -220.66936296 488.87840286 -229.3984375 480.38818359 C-233.91613611 474.40749968 -235.54704804 469.55555055 -235.55233765 462.07139587 C-235.5567199 461.32043107 -235.56110215 460.56946627 -235.5656172 459.79574496 C-235.57900365 457.27178643 -235.58518378 454.74786281 -235.59130859 452.22387695 C-235.59920985 450.4170211 -235.60747881 448.61016682 -235.61608887 446.80331421 C-235.64231204 440.86156726 -235.65761944 434.91981326 -235.671875 428.97802734 C-235.67723506 426.93177346 -235.68261257 424.88551962 -235.68800735 422.83926582 C-235.70963886 414.32514907 -235.72837412 405.81103422 -235.73962975 397.29689693 C-235.75585844 385.10147671 -235.78900701 372.90637564 -235.84603059 360.71107572 C-235.884768 352.13343521 -235.9042671 343.55587992 -235.90955031 334.97815424 C-235.91319929 329.85696912 -235.9251721 324.73612437 -235.95765305 319.6150341 C-235.98779949 314.7927482 -235.99402205 309.97100743 -235.98226929 305.14864731 C-235.98204908 303.3838491 -235.9903098 301.61902513 -236.00792313 299.8543148 C-236.10373812 289.69706999 -236.04804431 280.54725057 -228.7842617 272.62844753 C-224.9086648 268.96591851 -220.21540998 266.33830014 -215.70703125 263.53662109 C-211.75420959 260.96985378 -207.95486393 258.22812002 -204.1484375 255.45068359 C-197.10633107 250.31712927 -189.99793757 245.290635 -182.8359375 240.32568359 C-175.9871429 235.57646994 -169.14351606 230.82135548 -162.3359375 226.01318359 C-161.65732666 225.53421631 -160.97871582 225.05524902 -160.27954102 224.56176758 C-157.00445212 222.24592311 -153.73950688 219.91711221 -150.48828125 217.56787109 C-149.86123291 217.11589355 -149.23418457 216.66391602 -148.58813477 216.19824219 C-146.90542698 214.98346888 -145.2260083 213.76414301 -143.546875 212.54443359 C-137.22639609 208.21576814 -133.07032246 206.17809699 -125.3984375 205.38818359 C-125.40028109 204.77803185 -125.40212467 204.16788012 -125.40402412 203.53923893 C-125.44827126 188.66494762 -125.48132713 173.7906627 -125.50206184 158.91632175 C-125.51235656 151.72308037 -125.52638222 144.52988303 -125.54931641 137.33666992 C-125.56930572 131.06409119 -125.58216705 124.79154437 -125.58661449 118.51893467 C-125.58921253 115.20033267 -125.59634438 111.88184276 -125.60989761 108.56326485 C-125.6244546 104.85063431 -125.62641365 101.13819168 -125.62548828 97.42553711 C-125.63267883 96.33580597 -125.63986938 95.24607483 -125.64727783 94.12332153 C-125.61954649 83.81412057 -124.42570208 75.30233251 -117.3984375 67.38818359 C-114.04372684 64.52390708 -110.4626612 62.11190082 -106.7734375 59.70068359 C-104.70539279 58.30665123 -102.63769064 56.91211056 -100.5703125 55.51708984 C-99.53455078 54.82631348 -98.49878906 54.13553711 -97.43164062 53.42382812 C-92.91633467 50.39351413 -88.46958396 47.26868723 -84.0234375 44.13818359 C-82.38032676 42.98697288 -80.73709953 41.8359284 -79.09375 40.68505859 C-74.00243471 37.11301013 -68.92158907 33.52622995 -63.84375 29.93505859 C-59.99686775 27.21620948 -56.14304693 24.50769037 -52.28125 21.81005859 C-50.97873291 20.89994019 -50.97873291 20.89994019 -49.64990234 19.97143555 C-47.91436147 18.76004157 -46.17772628 17.5502137 -44.43994141 16.34204102 C-40.92764337 13.89360699 -37.4279268 11.44720265 -34.0390625 8.82958984 C-32.67007813 7.77578125 -32.67007813 7.77578125 -31.2734375 6.70068359 C-30.18675781 5.82863281 -30.18675781 5.82863281 -29.078125 4.93896484 C-19.99649835 -0.31672871 -10.18362463 -0.04264783 0 0 Z " fill="#020100" transform="translate(235.3984375,11.61181640625)"/>
<path d="M0 0 C0.74717995 -0.00382555 1.4943599 -0.00765109 2.26418167 -0.01159257 C4.76913386 -0.02191558 7.27385653 -0.01793178 9.77882385 -0.01396179 C11.57423617 -0.01830865 13.36964663 -0.02349171 15.16505432 -0.02944946 C20.04311764 -0.04285335 24.92110355 -0.0434166 29.7991817 -0.04088616 C33.86988515 -0.03981742 37.94057288 -0.04469732 42.01127297 -0.04949158 C51.61365212 -0.06059152 61.21599216 -0.0610214 70.81837463 -0.05497742 C80.72839153 -0.04893578 90.63826652 -0.06125238 100.5482592 -0.08254749 C109.05366466 -0.10015311 117.55902492 -0.1061665 126.06444794 -0.10290974 C131.14567011 -0.10109513 136.22679105 -0.10375083 141.30799675 -0.11762428 C146.08587645 -0.13018114 150.86353461 -0.12827884 155.64141083 -0.11521339 C157.39538968 -0.11284341 159.14938401 -0.11559736 160.90334511 -0.12383652 C163.29698714 -0.13427016 165.68988117 -0.126231 168.08349609 -0.11352539 C168.77824695 -0.12089968 169.4729978 -0.12827396 170.18880171 -0.13587171 C174.49424235 -0.08776356 177.18718003 0.62110517 180.60523987 3.26069641 C183.07846762 6.97053804 182.86113781 8.83743413 182.87266541 13.26945496 C182.87719652 13.98719562 182.88172763 14.70493628 182.88639605 15.44442666 C182.89908274 17.85574169 182.89741696 20.26683211 182.89576721 22.67817688 C182.90174981 24.40447786 182.90855474 26.13077616 182.91612244 27.85707092 C182.93381716 32.55130842 182.93847928 37.24547304 182.93975401 41.93974066 C182.94165136 45.85630508 182.94900701 49.77285246 182.9560982 53.68941033 C182.97239302 62.92883867 182.97726616 72.16822802 182.97584534 81.40766907 C182.97464366 90.94336769 182.99574816 100.47884007 183.02733266 110.01448143 C183.05347145 118.19715341 183.06421364 126.3797514 183.06293452 134.56246483 C183.06242417 139.45147722 183.06814741 144.34028862 183.08929062 149.22925949 C183.10863264 153.82742762 183.10882525 158.42520221 183.09425735 163.02338409 C183.09216311 164.71125232 183.09690669 166.39914492 183.10897827 168.08697128 C183.12439064 170.39110225 183.11515067 172.69386948 183.09971619 174.99797058 C183.10080572 176.28734968 183.10189526 177.57672878 183.10301781 178.90517998 C182.52057369 182.83143036 181.37405669 184.47272828 178.60523987 187.26069641 C175.63227878 188.74717695 172.59780478 188.41594102 169.33709717 188.42132568 C168.20051453 188.42895741 168.20051453 188.42895741 167.04097062 188.43674332 C164.48842097 188.45250627 161.9358997 188.46100292 159.38331604 188.46943665 C157.55864276 188.4789719 155.73397132 188.48886291 153.90930176 188.49908447 C147.90562597 188.53050372 141.90193615 188.55073819 135.89820862 188.56929016 C134.36739257 188.57423614 134.36739257 188.57423614 132.80565095 188.57928205 C123.18573743 188.61006111 113.56582085 188.63677583 103.94587231 188.65370083 C91.62917692 188.67562247 79.31291667 188.7176226 66.99639529 188.7871384 C58.34242299 188.83432913 49.6885683 188.8586277 41.03447133 188.86589772 C35.8625047 188.87086095 30.69102821 188.88600574 25.51920128 188.92564201 C20.65420135 188.9624353 15.78997296 188.97094217 10.92486 188.95763588 C9.1386011 188.95768995 7.35230864 188.96803513 5.56617737 188.98938751 C3.12795931 189.01697881 0.69257288 189.00760434 -1.7456665 188.98895264 C-2.45345444 189.00574757 -3.16124238 189.02254249 -3.89047843 189.03984636 C-7.8460659 188.96416638 -9.33244653 188.31554878 -12.33398724 185.67340279 C-14.7252019 181.71347419 -15.01878215 179.52634184 -15.01622009 174.92913818 C-15.02260891 174.2129178 -15.02899774 173.49669742 -15.03558016 172.75877339 C-15.05078385 170.37008442 -15.03040196 167.98306659 -15.00999451 165.59443665 C-15.01349709 163.87754264 -15.01915723 162.16065189 -15.02680969 160.44377136 C-15.04104655 155.78876471 -15.02400766 151.13434953 -15.00052452 146.47939944 C-14.98040624 141.60637564 -14.98629553 136.73337617 -14.9886322 131.86032104 C-14.98857865 123.67833204 -14.9688299 115.49657409 -14.93675232 107.31465149 C-14.89984791 97.85558982 -14.89107863 88.39683067 -14.89804983 78.93770641 C-14.90435482 69.83619696 -14.89360141 60.73479121 -14.87408447 51.63330269 C-14.86591042 47.76060063 -14.86320093 43.88795158 -14.86477661 40.01524162 C-14.86565551 35.45561567 -14.85143792 30.89627724 -14.82555008 26.33672714 C-14.8183879 24.6633894 -14.81630491 22.99002106 -14.81966782 21.31667137 C-14.82338261 19.0325593 -14.80863614 16.74928633 -14.78916931 14.465271 C-14.7854406 13.18716269 -14.78171188 11.90905439 -14.77787018 10.59221554 C-14.36047394 6.96254418 -13.65496521 5.1095685 -11.39476013 2.26069641 C-7.95934777 -0.32026504 -4.1270064 -0.02237834 0 0 Z " fill="#FE9700" transform="translate(244.39476013183594,293.7393035888672)"/>
<path d="M0 0 C0.74884909 -0.00438225 1.49769818 -0.00876451 2.26923966 -0.01327956 C4.79182063 -0.0266906 7.31436664 -0.03285158 9.8369751 -0.03897095 C11.64032144 -0.04687011 13.4436662 -0.05513894 15.24700928 -0.06375122 C21.18095383 -0.08999313 27.11490553 -0.10528113 33.04888916 -0.11953735 C35.08996841 -0.12489616 37.13104762 -0.13027367 39.17212677 -0.13566971 C47.66133385 -0.15730171 56.15053901 -0.17603909 64.63976669 -0.1872921 C76.81426695 -0.2035351 88.98844822 -0.2367178 101.16282821 -0.29369295 C109.71830559 -0.3323695 118.27369758 -0.35192209 126.82926011 -0.35721266 C131.94138976 -0.36086929 137.05317937 -0.37292356 142.16521454 -0.4053154 C146.97516369 -0.43535571 151.78456633 -0.44172229 156.59458923 -0.42993164 C158.3594542 -0.42971057 160.12434421 -0.43804363 161.88912201 -0.45558548 C164.30043809 -0.47824807 166.70976757 -0.46999748 169.12109375 -0.45410156 C170.16673355 -0.47492469 170.16673355 -0.47492469 171.23349738 -0.49616849 C174.82056742 -0.43797491 177.36649696 0.16863915 180.24815464 2.23407555 C183.46799594 5.89738607 183.56611085 7.6476324 183.56968689 12.47909546 C183.58266846 13.57052038 183.58266846 13.57052038 183.59591228 14.68399429 C183.61747081 17.1174442 183.59622629 19.54860034 183.57501221 21.98202515 C183.58150661 23.72833345 183.59056849 25.47463382 183.602005 27.22091675 C183.62508825 31.96075162 183.61036593 36.6997814 183.58753562 41.43959045 C183.56862426 46.39938508 183.57977722 51.35912549 183.58644104 56.31893921 C183.59278217 64.64817089 183.57450895 72.97707991 183.54180908 81.3062439 C183.50431435 90.93637692 183.50609307 100.56589865 183.52885026 110.196064 C183.54979748 119.45938936 183.54252634 128.72248875 183.52253151 137.98580933 C183.51454411 141.92833914 183.51653867 145.8706779 183.52655602 149.8132019 C183.53710491 154.455867 183.522987 159.09781953 183.48981285 163.7403717 C183.48160285 165.44434166 183.48189296 167.14837688 183.49129105 168.8523407 C183.50271237 171.17859367 183.48335231 173.50262869 183.4561615 175.82870483 C183.45297755 177.13023499 183.44979361 178.43176514 183.44651318 179.7727356 C182.62915834 184.14554493 181.42931334 185.59221854 177.81451416 188.15390015 C175.06068188 188.64551753 172.9252863 188.82810373 170.17887878 188.78208923 C169.41788818 188.78918362 168.65689758 188.79627801 167.87284666 188.80358738 C165.32676332 188.82116846 162.7822064 188.80306336 160.23614502 188.78500366 C158.4094015 188.79014242 156.58266293 188.79742337 154.75593567 188.8066864 C149.79725714 188.82521284 144.83911577 188.81225448 139.88045955 188.7925961 C134.69331525 188.77622108 129.50620527 188.78502079 124.31904602 188.79011536 C115.6090333 188.79463719 106.89923527 188.77875988 98.18927002 188.75082397 C88.11498514 188.71876166 78.04108728 188.71879143 67.96677488 188.73603874 C58.27952841 188.75189338 48.59242403 188.74517776 38.90518379 188.72810173 C34.78043403 188.72122371 30.65579791 188.72227136 26.53104973 188.72964668 C21.67590974 188.73729871 16.82121114 188.72521884 11.96614647 188.69779778 C10.18273479 188.69090186 8.39928197 188.69082886 6.61587143 188.69801331 C4.18447439 188.7066807 1.7544481 188.69079963 -0.67683411 188.66856384 C-1.38548853 188.67680461 -2.09414294 188.68504538 -2.82427174 188.69353586 C-6.20875993 188.63625766 -7.90383263 188.37708513 -10.59227657 186.24673367 C-13.47189439 182.46407887 -13.31694423 180.00676911 -13.33265686 175.26539612 C-13.33633355 174.54850988 -13.34001024 173.83162365 -13.34379834 173.09301358 C-13.35485605 170.67865026 -13.35868253 168.26432995 -13.36248779 165.84994507 C-13.36875083 164.12379316 -13.37539749 162.3976426 -13.38240051 160.67149353 C-13.39982421 155.97308368 -13.41036585 151.27468401 -13.41860604 146.57624984 C-13.42375294 143.64243311 -13.42982879 140.70861956 -13.43611717 137.77480507 C-13.45517245 128.60018237 -13.46940328 119.42556775 -13.47772914 110.25092906 C-13.487506 99.65167991 -13.5138358 89.05263936 -13.55423003 78.45346373 C-13.58436289 70.26657468 -13.59919529 62.07974551 -13.60251015 53.89280206 C-13.60486374 49.00040811 -13.61386422 44.10823692 -13.63897133 39.21590233 C-13.66220783 34.61366126 -13.66650318 30.01179031 -13.65620995 25.40950584 C-13.65571341 23.72001924 -13.66206858 22.03051468 -13.67576599 20.34108353 C-13.6934195 18.03472821 -13.6864123 15.72971062 -13.67323303 13.4233551 C-13.67562139 12.13267718 -13.67800974 10.84199926 -13.68047047 9.51220989 C-13.1012696 5.58252036 -11.95681027 3.94327644 -9.18548584 1.15390015 C-6.23260032 -0.32254261 -3.23795823 0.00228283 0 0 Z " fill="#FE9700" transform="translate(30.18548583984375,293.8460998535156)"/>
<path d="M0 0 C0.76028503 -0.00709439 1.52057007 -0.01418877 2.30389404 -0.02149814 C4.84764388 -0.03907926 7.38986589 -0.02097404 9.93359375 -0.00291443 C11.75871476 -0.00805323 13.58383081 -0.01533421 15.40893555 -0.02459717 C20.36354926 -0.04312438 25.3176254 -0.03016422 30.2722168 -0.01050687 C35.45622389 0.00587 40.64019669 -0.00293193 45.82421875 -0.00802612 C54.53003534 -0.01254815 63.23563715 0.00332958 71.94140625 0.03126526 C82.00771884 0.0633176 92.07364403 0.06330175 102.13998413 0.04605049 C111.82188781 0.03018895 121.50364941 0.03691658 131.18554688 0.0539875 C135.30667908 0.06086167 139.42769751 0.05982178 143.54882812 0.05244255 C148.40150877 0.04478371 153.25374834 0.05689279 158.10635376 0.08429146 C159.88773286 0.09118058 161.66915311 0.09126762 163.45053101 0.08407593 C165.88157608 0.07539207 168.31125657 0.0913178 170.7421875 0.11352539 C171.44792908 0.10528462 172.15367065 0.09704386 172.88079834 0.08855337 C176.21704738 0.1448435 178.35720722 0.62071017 181.308218 2.21004677 C184.12150845 5.50783952 183.99977709 7.52540154 184.00601196 11.83312988 C184.01381192 12.55989207 184.02161187 13.28665426 184.02964818 14.03543955 C184.04959885 16.47173765 184.03379311 18.90647891 184.01806641 21.3427887 C184.02484128 23.08894768 184.03374368 24.83509952 184.0446167 26.58123779 C184.06743396 31.32516479 184.05856331 36.06854882 184.04272127 40.81248546 C184.03007282 45.77495853 184.04179963 50.73738474 184.0496521 55.69985962 C184.05875259 64.03502254 184.04675116 72.36996407 184.02294922 80.70509338 C183.99574611 90.34257765 184.00454459 99.97953292 184.03208125 109.61700433 C184.05477057 117.88890294 184.05797299 126.16064227 184.0448879 134.43256193 C184.03709128 139.37410468 184.03605744 144.3153988 184.05257034 149.25692558 C184.06701295 153.90365798 184.05699733 158.54970854 184.02809906 163.19636726 C184.02148672 164.90195712 184.02338849 166.60760434 184.03441238 168.31317139 C184.04807491 170.64164402 184.03094721 172.96793137 184.00601196 175.29626465 C184.00412683 176.59909362 184.00224171 177.90192259 184.00029945 179.24423122 C183.18659392 183.62045545 181.98866926 185.0659429 178.37109375 187.62818909 C175.61667904 188.11771775 173.48196108 188.29831715 170.73545837 188.24964905 C169.59397247 188.25923228 169.59397247 188.25923228 168.42942625 188.26900911 C165.8833215 188.2842515 163.33877479 188.26380435 160.79272461 188.24342346 C158.96598292 188.24692487 157.13924427 188.25258368 155.31251526 188.26023865 C150.35382085 188.27449238 145.39568057 188.25741991 140.43703914 188.23395348 C135.24990332 188.21385731 130.06279078 188.21972334 124.87562561 188.22206116 C116.16560721 188.22200758 107.45580568 188.20224438 98.74584961 188.17018127 C88.67160948 188.13327657 78.59765337 188.12450722 68.52335447 188.13147879 C58.83611837 188.13778046 49.1489798 188.12703645 39.46176338 188.10751343 C35.33703791 188.09933232 31.21236223 188.09663118 27.08762932 188.09820557 C22.23254758 188.09908349 17.37773643 188.0848933 12.52272606 188.05897903 C10.73931439 188.05180748 8.95587395 188.04973835 7.17245102 188.05309677 C4.7412541 188.05680225 2.31085094 188.04209724 -0.12025452 188.02259827 C-0.82890894 188.02792619 -1.53756335 188.03325412 -2.26769215 188.0387435 C-5.29577436 187.99673281 -7.36680391 187.77380635 -10.03569698 186.29103851 C-13.28042902 182.90447724 -12.76360075 179.06084101 -12.7828064 174.61943054 C-12.78718865 173.90168988 -12.7915709 173.18394922 -12.79608595 172.44445884 C-12.80946822 170.03320611 -12.81565145 167.62198993 -12.82177734 165.21070862 C-12.82967859 163.48440892 -12.83794756 161.75811088 -12.84655762 160.03181458 C-12.8727692 154.35822628 -12.88808172 148.68463062 -12.90234375 143.01100159 C-12.90770328 141.05873993 -12.91308079 139.10647832 -12.9184761 137.15421677 C-12.94010116 129.03555249 -12.95883936 120.91689021 -12.9700985 112.79820442 C-12.98634879 101.15678471 -13.01955702 89.51569817 -13.07649934 77.87440407 C-13.11516264 69.69174284 -13.13472674 61.50917086 -13.14001906 53.32642066 C-13.14367671 48.43733773 -13.1557422 43.54861022 -13.1881218 38.65962601 C-13.21813994 34.06141959 -13.22453676 29.46378483 -13.21273804 24.8655014 C-13.21251679 23.17761736 -13.22086373 21.48970726 -13.23839188 19.80191422 C-13.26102147 17.49755634 -13.25282009 15.19528251 -13.23690796 12.89091492 C-13.24021811 11.60153582 -13.24352825 10.31215672 -13.24693871 8.98370552 C-11.85625133 1.4331727 -6.9702317 -0.11689515 0 0 Z " fill="#FE9700" transform="translate(140.62890625,89.37181091308594)"/>
<path d="M0 0 C0.66 0 1.32 0 2 0 C2.09344361 20.88812492 2.16397937 41.77621538 2.20724869 62.66450691 C2.22787344 72.36332308 2.25599242 82.06200938 2.30175781 91.76074219 C2.34162819 100.21421676 2.36743344 108.66759727 2.37635398 117.12116325 C2.38156839 121.59725264 2.39382231 126.07307294 2.42292023 130.54907608 C2.45009254 134.76305801 2.45844136 138.97666029 2.45243073 143.19072151 C2.45353015 144.73627728 2.46147344 146.28184588 2.4768219 147.82732582 C2.49677949 149.94077781 2.49191981 152.05280402 2.48101807 154.16629028 C2.48470524 155.34802889 2.48839241 156.52976749 2.49219131 157.74731636 C1.57052241 163.83823527 -2.52702313 167.7772593 -6.75268555 171.99560547 C-7.21008118 172.45489944 -7.66747681 172.91419342 -8.13873291 173.3874054 C-9.63323864 174.8855794 -11.13475488 176.37649369 -12.63671875 177.8671875 C-13.68272292 178.91199826 -14.72835627 179.9571804 -15.77363586 181.00271606 C-17.95513927 183.18266183 -20.13994213 185.35922524 -22.32739258 187.53320312 C-25.13713913 190.32586573 -27.94016232 193.1251616 -30.74100018 195.92675591 C-32.89474733 198.08023198 -35.0510838 200.23109889 -37.20832253 202.38107681 C-38.24360086 203.41316577 -39.2782683 204.44586789 -40.31232262 205.4791832 C-41.75086338 206.91556863 -43.19308486 208.34826501 -44.63549805 209.78076172 C-45.86649483 211.0060408 -45.86649483 211.0060408 -47.12236023 212.256073 C-49 214 -49 214 -50 214 C-50.00423194 213.15847507 -50.00846388 212.31695015 -50.01282406 211.44992447 C-50.11607024 190.98605603 -50.22469895 170.52222236 -50.33933926 150.05841446 C-50.39464794 140.16232739 -50.4481261 130.26623672 -50.49731445 120.37011719 C-50.5401851 111.74597536 -50.58647041 103.12185982 -50.63687855 94.49775863 C-50.66345624 89.93019804 -50.68830877 85.36264259 -50.70907402 80.79505157 C-50.72866586 76.49742533 -50.75281731 72.19984902 -50.78049088 67.90226746 C-50.78984781 66.32365069 -50.79752796 64.74502297 -50.80341911 63.16638947 C-50.81170338 61.01323562 -50.82598651 58.86020222 -50.84178162 56.70709229 C-50.84823417 55.50138706 -50.85468672 54.29568184 -50.8613348 53.05344009 C-50.97684327 50.50991653 -51.25043806 48.41763951 -52 46 C-47.00625138 41.41788358 -41.97323682 36.93163574 -36.6875 32.6875 C-31.87946898 28.80174292 -27.36115589 24.6816174 -22.85424805 20.45751953 C-18.53779661 16.43553269 -14.06594085 12.69698674 -9.4375 9.03515625 C-6.87734159 6.96773439 -6.87734159 6.96773439 -4.3125 4.24609375 C-2 2 -2 2 0 2 C0 1.34 0 0.68 0 0 Z " fill="#FE5621" transform="translate(391,41)"/>
<path d="M0 0 C0.16361882 20.98387686 0.28700867 41.96764835 0.3626852 62.952034 C0.39875931 72.69577882 0.44792937 82.43912698 0.52807617 92.18261719 C0.59790989 100.67639862 0.64302254 109.16989276 0.65861946 117.6639533 C0.66773492 122.16047074 0.68911275 126.65616637 0.7401104 131.15242004 C0.78775994 135.38795315 0.80225402 139.62232902 0.79175377 143.85810471 C0.79367355 145.40931369 0.80751901 146.96056288 0.83443832 148.51153946 C1.05159893 161.67323315 1.05159893 161.67323315 -3.25428772 166.68273926 C-4.47505892 167.81910962 -5.72163947 168.92882574 -7 170 C-7.8142746 170.8561792 -8.62854919 171.7123584 -9.46749878 172.59448242 C-10.21282867 173.34060791 -10.95815857 174.0867334 -11.72607422 174.85546875 C-12.58321014 175.71575684 -13.44034607 176.57604492 -14.32345581 177.46240234 C-15.22476227 178.36168457 -16.12606873 179.2609668 -17.0546875 180.1875 C-18.0065035 181.13999117 -18.95817115 182.09263062 -19.90969849 183.04541016 C-21.88642437 185.02359796 -23.86491676 186.99999644 -25.84472656 188.97509766 C-28.38697866 191.51159829 -30.92464068 194.05263678 -33.4610424 196.59498596 C-35.41683107 198.55437458 -37.3749781 200.51139226 -39.33386612 202.46768188 C-40.72733685 203.86015993 -42.11879148 205.25465457 -43.51022339 206.64916992 C-44.34844635 207.48424072 -45.18666931 208.31931152 -46.05029297 209.1796875 C-46.7908493 209.91944824 -47.53140564 210.65920898 -48.29440308 211.42138672 C-50 213 -50 213 -51 213 C-51.00423194 212.17577986 -51.00846388 211.35155972 -51.01282406 210.5023632 C-51.11613146 190.4467078 -51.22476939 170.39108744 -51.33933926 150.33549309 C-51.39461584 140.63676014 -51.44808867 130.93802351 -51.49731445 121.23925781 C-51.54022448 112.78576164 -51.58651961 104.33229195 -51.63687855 95.87883675 C-51.66342457 91.40287435 -51.68827619 86.92691702 -51.70907402 82.45092392 C-51.72870758 78.2370104 -51.75287118 74.023147 -51.78049088 69.80927849 C-51.7898258 68.26375301 -51.79751374 66.71821656 -51.80341911 65.17267418 C-51.81174107 63.05963141 -51.82603414 60.94670835 -51.84178162 58.83370972 C-51.84823417 57.65197111 -51.85468672 56.47023251 -51.8613348 55.25268364 C-51.92848822 51.97583941 -51.92848822 51.97583941 -52.58899021 48.69911385 C-53 46 -53 46 -51.734375 43.98046875 C-51.07953125 43.38878906 -50.4246875 42.79710937 -49.75 42.1875 C-48.63431641 41.16462891 -48.63431641 41.16462891 -47.49609375 40.12109375 C-44.03943173 37.18374245 -40.52649965 34.3227798 -36.98828125 31.484375 C-33.71486164 28.7629438 -30.60442936 25.91037385 -27.5 23 C-22.68534269 18.49163307 -17.73397423 14.24227845 -12.5859375 10.11328125 C-9.18115938 7.33082662 -5.92666831 4.39747481 -2.6796875 1.43359375 C-1 0 -1 0 0 0 Z " fill="#FE5621" transform="translate(495,246)"/>
<path d="M0 0 C23.77386119 -0.07005013 47.54770693 -0.1229686 71.32165051 -0.15543652 C82.36005794 -0.17091196 93.39840128 -0.19201445 104.43676758 -0.22631836 C114.05668773 -0.25619994 123.67656146 -0.27557007 133.29652673 -0.28226548 C138.39124153 -0.28617984 143.48582355 -0.29539325 148.58049583 -0.31719017 C153.37471255 -0.33753566 158.16874165 -0.3438377 162.96299744 -0.33932304 C164.72343274 -0.34014911 166.48387424 -0.34612628 168.24427223 -0.35761642 C170.64685915 -0.37253037 173.04873658 -0.36895786 175.45133972 -0.36076355 C176.49755872 -0.37387134 176.49755872 -0.37387134 177.56491345 -0.38724393 C181.87986703 -0.34743363 184.57552931 0.35205408 188 3 C190.47322775 6.70984163 190.25589794 8.57673772 190.26742554 13.00875854 C190.27195665 13.72649921 190.27648776 14.44423987 190.28115618 15.18373024 C190.29384287 17.59504528 190.29217709 20.00613569 190.29052734 22.41748047 C190.29650994 24.14378145 190.30331487 25.87007975 190.31088257 27.59637451 C190.32857729 32.29061201 190.33323941 36.98477663 190.33451414 41.67904425 C190.33641149 45.59560867 190.34376714 49.51215605 190.35085833 53.42871392 C190.36715315 62.66814225 190.37202629 71.9075316 190.37060547 81.14697266 C190.36940379 90.68267128 190.3905083 100.21814365 190.4220928 109.75378501 C190.44823159 117.936457 190.45897377 126.11905499 190.45769465 134.30176842 C190.4571843 139.19078081 190.46290755 144.07959221 190.48405075 148.96856308 C190.50339277 153.56673121 190.50358538 158.1645058 190.48901749 162.76268768 C190.48692324 164.45055591 190.49166683 166.13844851 190.5037384 167.82627487 C190.51915077 170.13040584 190.50991081 172.43317306 190.49447632 174.73727417 C190.49556585 176.02665327 190.49665539 177.31603237 190.49777794 178.64448357 C189.91533382 182.57073395 188.76881682 184.21203187 186 187 C183.11584117 188.44207941 180.58278472 188.09394887 177.375 188.0625 C176.18648437 188.05347656 174.99796875 188.04445313 173.7734375 188.03515625 C172.85820312 188.02355469 171.94296875 188.01195312 171 188 C171.16371094 187.34644531 171.32742188 186.69289063 171.49609375 186.01953125 C172.12848563 182.23008226 172.10696709 178.51509049 172.0625 174.6875 C172.05573242 173.57665039 172.05573242 173.57665039 172.04882812 172.44335938 C172.03712175 170.62887101 172.01918898 168.81442466 172 167 C171.32654541 167.64904297 170.65309082 168.29808594 169.95922852 168.96679688 C166.26379233 171.50582769 164.10622021 171.51566046 159.65234375 171.53125 C158.95863174 171.5350769 158.26491974 171.53890381 157.55018616 171.54284668 C156.09032735 171.54555756 154.6304193 171.53825402 153.1706543 171.52148438 C150.94014136 171.50002541 148.71283651 171.52132559 146.48242188 171.546875 C145.05988875 171.54423221 143.63735762 171.53910822 142.21484375 171.53125 C140.92698975 171.52673828 139.63913574 171.52222656 138.31225586 171.51757812 C134.4768597 170.9182533 133.33372686 170.02914282 131 167 C129.55569145 164.11138291 129.62311494 162.20352299 130 159 C132.61816289 155.64924317 134.10181569 154.16574579 138.33398438 153.38476562 C139.57470703 153.39185547 140.81542969 153.39894531 142.09375 153.40625 C142.76289429 153.40620972 143.43203857 153.40616943 144.12145996 153.40612793 C145.53012533 153.41146721 146.93879154 153.42898242 148.34716797 153.45800781 C150.49409748 153.49988487 152.6378868 153.49907135 154.78515625 153.4921875 C167.59000282 153.59000282 167.59000282 153.59000282 172 158 C172 150.08 172 142.16 172 134 C170.02 134.99 168.04 135.98 166 137 C161.53334527 137.56461856 157.07428381 137.55746189 152.57739258 137.5559082 C150.43846731 137.56249702 148.30412638 137.61711627 146.16601562 137.67382812 C136.29064399 137.79599931 136.29064399 137.79599931 132.94433594 135.73217773 C130.82855268 133.29857458 130.01489163 131.072969 129.375 127.9375 C130.23131747 123.91280789 131.8192401 122.56786749 135 120 C138.42578125 119.36889648 138.42578125 119.36889648 142.3125 119.37109375 C143.3495105 119.36747581 143.3495105 119.36747581 144.4074707 119.36378479 C145.86317708 119.36476044 147.31892186 119.37808711 148.77441406 119.40307617 C150.9941291 119.43740919 153.2098626 119.42372157 155.4296875 119.40429688 C156.84897516 119.41119586 158.26825262 119.42086874 159.6875 119.43359375 C160.97011719 119.44447021 162.25273437 119.45534668 163.57421875 119.46655273 C167.53710608 120.08363575 169.01461142 121.43152717 172 124 C172.02336655 108.70106845 172.04099765 93.40213772 172.05181217 78.10319233 C172.05696714 70.99953426 172.06399463 63.89588728 172.07543945 56.79223633 C172.08647592 49.93877749 172.09228204 43.08533019 172.09487724 36.23186302 C172.09672707 33.61516323 172.10033924 30.99846408 172.10573006 28.38176918 C172.11297282 24.72105157 172.11398956 21.06038181 172.11352539 17.3996582 C172.11712067 16.31424744 172.12071594 15.22883667 172.12442017 14.11053467 C172.12235817 12.61091942 172.12235817 12.61091942 172.12025452 11.08100891 C172.12117631 10.2154453 172.1220981 9.34988169 172.12304783 8.45808887 C172.03795755 5.55345495 172.03795755 5.55345495 171 1 C114.57 1 58.14 1 0 1 C0 0.67 0 0.34 0 0 Z " fill="#EB7700" transform="translate(237,294)"/>
<path d="M0 0 C23.88693487 -0.11677894 47.77382698 -0.20496163 71.66098976 -0.25906086 C82.75211756 -0.28484726 93.84306804 -0.32000629 104.93408203 -0.37719727 C114.60052431 -0.42701867 124.26683818 -0.45928784 133.93340528 -0.47044247 C139.0522885 -0.47696333 144.17080433 -0.4922985 149.28956985 -0.52865028 C154.10767951 -0.56258967 158.92527047 -0.57305707 163.74348831 -0.56553841 C165.51158466 -0.56691387 167.27969837 -0.5768587 169.04769135 -0.59602737 C171.46347068 -0.62093446 173.87729608 -0.61491528 176.29312134 -0.60127258 C176.99157878 -0.61583679 177.69003621 -0.630401 178.40965903 -0.64540654 C182.00072099 -0.59065026 184.54942316 0.01192094 187.43448162 2.07975483 C190.65311666 5.7434212 190.75159703 7.49419126 190.75517273 12.32519531 C190.7681543 13.41662024 190.7681543 13.41662024 190.78139812 14.53009415 C190.80295665 16.96354405 190.78171213 19.3947002 190.76049805 21.828125 C190.76699245 23.5744333 190.77605433 25.32073367 190.78749084 27.0670166 C190.81057409 31.80685147 190.79585177 36.54588126 190.77302146 41.28569031 C190.7541101 46.24548493 190.76526306 51.20522534 190.77192688 56.16503906 C190.778268 64.49427075 190.75999479 72.82317976 190.72729492 81.15234375 C190.68980019 90.78247678 190.69157891 100.41199851 190.7143361 110.04216385 C190.73528332 119.30548921 190.72801218 128.56858861 190.70801735 137.83190918 C190.70002995 141.774439 190.70202451 145.71677775 190.71204185 149.65930176 C190.72259075 154.30196685 190.70847284 158.94391939 190.67529869 163.58647156 C190.66708869 165.29044152 190.6673788 166.99447673 190.67677689 168.69844055 C190.68819821 171.02469352 190.66883815 173.34872854 190.64164734 175.67480469 C190.63846339 176.97633484 190.63527945 178.27786499 190.63199902 179.61883545 C189.83477358 183.88395344 188.39549147 185.37573413 185 188 C181.44921875 188.48828125 181.44921875 188.48828125 177.6875 188.3125 C176.43324219 188.26738281 175.17898437 188.22226562 173.88671875 188.17578125 C172.93410156 188.11777344 171.98148438 188.05976563 171 188 C171.33 187.01 171.66 186.02 172 185 C172.07973476 183.66474283 172.10771338 182.32587917 172.09765625 180.98828125 C172.09443359 180.23095703 172.09121094 179.47363281 172.08789062 178.69335938 C172.07951172 177.90767578 172.07113281 177.12199219 172.0625 176.3125 C172.05798828 175.51521484 172.05347656 174.71792969 172.04882812 173.89648438 C172.0370585 171.93095743 172.01912348 169.96546915 172 168 C171.32130859 168.48533203 170.64261719 168.97066406 169.94335938 169.47070312 C164.85801749 172.11292124 159.26485026 171.51896792 153.65283203 171.50097656 C151.50547858 171.50000249 149.36168343 171.54169304 147.21484375 171.5859375 C145.84115323 171.59114421 144.46745038 171.5938327 143.09375 171.59375 C141.23266602 171.60438477 141.23266602 171.60438477 139.33398438 171.61523438 C135.09439347 170.83288456 133.6236413 169.357185 131 166 C130.375 162.5 130.375 162.5 131 159 C133.6236413 155.642815 135.09439347 154.16711544 139.33398438 153.38476562 C140.57470703 153.39185547 141.81542969 153.39894531 143.09375 153.40625 C143.76289429 153.40620972 144.43203857 153.40616943 145.12145996 153.40612793 C146.53012533 153.41146721 147.93879154 153.42898242 149.34716797 153.45800781 C151.49409748 153.49988487 153.6378868 153.49907135 155.78515625 153.4921875 C166.28735509 153.57241306 166.28735509 153.57241306 172 157 C172 149.41 172 141.82 172 134 C170.35 134.99 168.7 135.98 167 137 C162.56124808 137.55906952 158.12168084 137.51530308 153.65283203 137.50097656 C151.50547858 137.50000249 149.36168343 137.54169304 147.21484375 137.5859375 C145.84115323 137.59114421 144.46745038 137.5938327 143.09375 137.59375 C141.23266602 137.60438477 141.23266602 137.60438477 139.33398438 137.61523438 C135.09439347 136.83288456 133.6236413 135.357185 131 132 C130.375 128.5 130.375 128.5 131 125 C133.65766788 121.57332739 135.1232672 120.15672602 139.44165039 119.38476562 C140.73063232 119.39185547 142.01961426 119.39894531 143.34765625 119.40625 C144.38822426 119.40618958 144.38822426 119.40618958 145.44981384 119.40612793 C146.90975046 119.41146782 148.36968782 119.42898556 149.8293457 119.45800781 C152.0596521 119.49994645 154.28694294 119.49906687 156.51757812 119.4921875 C167.43022336 119.57266752 167.43022336 119.57266752 172 123 C172 82.74 172 42.48 172 1 C115.24 1 58.48 1 0 1 C0 0.67 0 0.34 0 0 Z " fill="#EF7A00" transform="translate(23,294)"/>
<path d="M0 0 C2.22808159 -0.10853983 4.45769932 -0.18583307 6.6875 -0.25 C7.92886719 -0.29640625 9.17023438 -0.3428125 10.44921875 -0.390625 C14.71251169 0.07838412 16.05834286 0.92109838 19 4 C19.6292057 7.25811672 19.6292057 7.25811672 19.63491821 11.2049408 C19.64271817 11.93170299 19.65051812 12.65846518 19.65855443 13.40725046 C19.6785051 15.84354856 19.66269936 18.27828982 19.64697266 20.71459961 C19.65374753 22.46075859 19.66264993 24.20691043 19.67352295 25.95304871 C19.69634021 30.69697571 19.68746956 35.44035973 19.67162752 40.18429637 C19.65897907 45.14676944 19.67070588 50.10919566 19.67855835 55.07167053 C19.68765884 63.40683345 19.67565741 71.74177498 19.65185547 80.0769043 C19.62465236 89.71438856 19.63345084 99.35134384 19.6609875 108.98881525 C19.68367682 117.26071385 19.68687924 125.53245318 19.67379415 133.80437285 C19.66599753 138.74591559 19.66496369 143.68720971 19.68147659 148.6287365 C19.6959192 153.27546889 19.68590358 157.92151945 19.65700531 162.56817818 C19.65039297 164.27376803 19.65229474 165.97941525 19.66331863 167.6849823 C19.67698116 170.01345493 19.65985346 172.33974228 19.63491821 174.66807556 C19.63303308 175.97090453 19.63114796 177.2737335 19.6292057 178.61604214 C18.83550053 182.88470157 17.39806212 184.37469196 14 187 C10.44921875 187.48828125 10.44921875 187.48828125 6.6875 187.3125 C5.43324219 187.26738281 4.17898438 187.22226562 2.88671875 187.17578125 C1.93410156 187.11777344 0.98148437 187.05976563 0 187 C0.33 186.01 0.66 185.02 1 184 C1.07973476 182.66474283 1.10771338 181.32587917 1.09765625 179.98828125 C1.09443359 179.23095703 1.09121094 178.47363281 1.08789062 177.69335938 C1.07532227 176.51483398 1.07532227 176.51483398 1.0625 175.3125 C1.05798828 174.51521484 1.05347656 173.71792969 1.04882812 172.89648438 C1.0370585 170.93095743 1.01912348 168.96546915 1 167 C0.49404297 167.48605713 -0.01191406 167.97211426 -0.53320312 168.47290039 C-3.81276669 170.50315277 -6.72657293 170.44954644 -10.46875 170.43359375 C-11.186073 170.4388356 -11.903396 170.44407745 -12.64245605 170.44947815 C-14.15534168 170.45588642 -15.66827721 170.45457678 -17.18115234 170.44604492 C-19.4927652 170.43752666 -21.80191189 170.46632027 -24.11328125 170.49804688 C-25.58593676 170.49965891 -27.05859664 170.49908132 -28.53125 170.49609375 C-29.21989136 170.50732773 -29.90853271 170.51856171 -30.61804199 170.53013611 C-33.92983276 170.48215295 -35.73375439 170.1954339 -38.43164062 168.21508789 C-40.31788416 165.55103315 -40.51975789 163.32716372 -40.62890625 160.09765625 C-39.62116818 156.73644295 -37.66827949 155.21436218 -35 153 C-31.68188477 152.36889648 -31.68188477 152.36889648 -27.94140625 152.37109375 C-27.27463364 152.36868179 -26.60786102 152.36626984 -25.92088318 152.36378479 C-24.51644928 152.36476033 -23.11197553 152.37808446 -21.70776367 152.40307617 C-19.57140802 152.43735706 -17.43920259 152.42373497 -15.30273438 152.40429688 C-13.93227425 152.4111976 -12.56182471 152.42087206 -11.19140625 152.43359375 C-9.33817749 152.44990845 -9.33817749 152.44990845 -7.44750977 152.46655273 C-4 153 -4 153 2 157 C1.67 149.08 1.34 141.16 1 133 C-0.32 133.99 -1.64 134.98 -3 136 C-7.55216805 136.57711572 -12.11512113 136.51511335 -16.69897461 136.50097656 C-18.92758448 136.50000433 -21.15274656 136.54163613 -23.38085938 136.5859375 C-24.80468036 136.59114529 -26.22851325 136.59383268 -27.65234375 136.59375 C-28.94132568 136.60083984 -30.23030762 136.60792969 -31.55834961 136.61523438 C-35.8767328 135.84327398 -37.34233212 134.42667261 -40 131 C-40.625 127.5 -40.625 127.5 -40 124 C-37.37007139 120.62847753 -35.90987312 119.16279706 -31.65014648 118.40063477 C-29.77951538 118.42081665 -29.77951538 118.42081665 -27.87109375 118.44140625 C-26.86381981 118.44490334 -26.86381981 118.44490334 -25.8361969 118.44847107 C-24.42330128 118.45817326 -23.0104425 118.47987961 -21.59790039 118.51293945 C-19.44032966 118.56243509 -17.285041 118.57442804 -15.12695312 118.58007812 C-3.6842551 118.69712472 -3.6842551 118.69712472 0 121 C0 121.66 0 122.32 0 123 C0.66 123 1.32 123 2 123 C1.89281148 107.40570834 1.7800592 91.81146752 1.66066074 76.21726513 C1.60535363 68.97680972 1.55187575 61.73634938 1.50268555 54.49584961 C1.45981294 48.18594263 1.41352717 41.87607157 1.36312145 35.5662201 C1.3365453 32.22439189 1.31169285 28.88257069 1.29092598 25.54070091 C1.26690097 21.81248368 1.23684361 18.08436148 1.20532227 14.35620117 C1.19668907 12.68924698 1.19668907 12.68924698 1.18788147 10.98861694 C1.17809265 9.97479446 1.16830383 8.96097198 1.15821838 7.91642761 C1.15176583 7.03427173 1.14531328 6.15211584 1.1386652 5.24322796 C1.08593685 2.82932028 1.08593685 2.82932028 0 0 Z " fill="#F47C00" transform="translate(305,90)"/>
<path d="M0 0 C-0.92932587 1.10735166 -1.86204861 2.21185298 -2.79614258 3.31518555 C-3.57469353 4.23825752 -3.57469353 4.23825752 -4.36897278 5.17997742 C-6.906204 8.01121044 -9.76191155 10.39549555 -12.6875 12.8125 C-13.92827535 13.85535423 -15.16784463 14.89964498 -16.40625 15.9453125 C-17.0146875 16.45868164 -17.623125 16.97205078 -18.25 17.50097656 C-20.78362733 19.67124327 -23.23552724 21.92576651 -25.6875 24.1875 C-30.13321538 28.26709764 -34.71570503 32.11902673 -39.4375 35.875 C-42.0045635 37.93680244 -42.0045635 37.93680244 -44.1875 40.1875 C-45.1775 41.1775 -45.1775 41.1775 -46.1875 42.1875 C-46.73792969 42.77917969 -47.28835938 43.37085938 -47.85546875 43.98046875 C-50.83990399 45.39929862 -52.73190589 44.32468612 -55.79653931 43.50195694 C-59.20140282 42.72631575 -62.59487958 42.69186233 -66.06835938 42.68115234 C-66.83030609 42.67110672 -67.59225281 42.6610611 -68.37728882 42.65071106 C-70.86610236 42.62011256 -73.35480953 42.60290968 -75.84375 42.5859375 C-77.58110454 42.56720701 -79.31845016 42.54763222 -81.05578613 42.5272522 C-85.60618816 42.47612354 -90.15661962 42.43639523 -94.70715332 42.39910889 C-99.35952927 42.35894785 -104.01178483 42.30791095 -108.6640625 42.2578125 C-117.77595686 42.16128161 -126.8879195 42.07680439 -136 42 C-135.43562477 41.38716408 -135.43562477 41.38716408 -134.85984802 40.76194763 C-132.09080943 37.65912412 -129.66336841 34.61822718 -127.61352539 30.99243164 C-101.33908781 -15.30252797 -45.57212237 -3.18391177 0 0 Z " fill="#F37B00" transform="translate(480,235)"/>
<path d="M0 0 C0.66 0 1.32 0 2 0 C2.09344361 20.88812492 2.16397937 41.77621538 2.20724869 62.66450691 C2.22787344 72.36332308 2.25599242 82.06200938 2.30175781 91.76074219 C2.34162819 100.21421676 2.36743344 108.66759727 2.37635398 117.12116325 C2.38156839 121.59725264 2.39382231 126.07307294 2.42292023 130.54907608 C2.45009254 134.76305801 2.45844136 138.97666029 2.45243073 143.19072151 C2.45353015 144.73627728 2.46147344 146.28184588 2.4768219 147.82732582 C2.49677949 149.94077781 2.49191981 152.05280402 2.48101807 154.16629028 C2.48470524 155.34802889 2.48839241 156.52976749 2.49219131 157.74731636 C1.57052241 163.83823527 -2.52702313 167.7772593 -6.75268555 171.99560547 C-7.21008118 172.45489944 -7.66747681 172.91419342 -8.13873291 173.3874054 C-9.63323864 174.8855794 -11.13475488 176.37649369 -12.63671875 177.8671875 C-13.68272292 178.91199826 -14.72835627 179.9571804 -15.77363586 181.00271606 C-17.95513927 183.18266183 -20.13994213 185.35922524 -22.32739258 187.53320312 C-25.13713913 190.32586573 -27.94016232 193.1251616 -30.74100018 195.92675591 C-32.89474733 198.08023198 -35.0510838 200.23109889 -37.20832253 202.38107681 C-38.24360086 203.41316577 -39.2782683 204.44586789 -40.31232262 205.4791832 C-41.75086338 206.91556863 -43.19308486 208.34826501 -44.63549805 209.78076172 C-45.86649483 211.0060408 -45.86649483 211.0060408 -47.12236023 212.256073 C-49 214 -49 214 -50 214 C-50 161.2 -50 108.4 -50 54 C-49.67 54 -49.34 54 -49 54 C-48.67 101.85 -48.34 149.7 -48 199 C-30.49659009 184.98342642 -30.49659009 184.98342642 -16.53129768 161.83237267 C-16.54579397 160.74955828 -16.56029026 159.66674389 -16.57522583 158.55111694 C-16.58470497 156.67167892 -16.58470497 156.67167892 -16.59437561 154.75427246 C-16.62141115 153.38353972 -16.64871817 152.01281231 -16.67626953 150.64208984 C-16.69047044 149.18435385 -16.70269082 147.72659743 -16.71308899 146.26882935 C-16.73834063 143.13829139 -16.77498437 140.0081674 -16.81979752 136.87784958 C-16.88814611 131.91702179 -16.91496692 126.95650358 -16.93331909 121.99526978 C-16.99013031 107.89053194 -17.07212881 93.78672517 -17.26367188 79.68310547 C-17.36921999 71.88633749 -17.42422984 64.09090343 -17.42359054 56.29340136 C-17.42543015 52.17400058 -17.4528484 48.05841072 -17.54315567 43.93992233 C-18.1440021 15.56483778 -18.1440021 15.56483778 -10.98800468 8.0625248 C-3.92763516 2 -3.92763516 2 0 2 C0 1.34 0 0.68 0 0 Z " fill="#D14114" transform="translate(391,41)"/>
<path d="M0 0 C0.88141663 -0.01283524 1.76283325 -0.02567047 2.67095947 -0.03889465 C3.62613464 -0.04628159 4.58130981 -0.05366852 5.56542969 -0.0612793 C6.54719177 -0.06935104 7.52895386 -0.07742279 8.54046631 -0.08573914 C10.62184887 -0.09958597 12.70325419 -0.11030543 14.78466797 -0.11816406 C17.96072767 -0.1353542 21.13574042 -0.17923261 24.31152344 -0.22338867 C26.3336512 -0.23351754 28.35578781 -0.24203304 30.37792969 -0.2487793 C31.32500793 -0.26628738 32.27208618 -0.28379547 33.24786377 -0.30183411 C40.06686557 -0.27951992 43.44219077 0.97581052 48.38183594 5.7746582 C53.44237117 12.12148333 53.01414259 17.53384342 53.11230469 25.36450195 C53.16837891 27.03222656 53.16837891 27.03222656 53.22558594 28.73364258 C53.30175663 35.8809923 52.50089887 40.6983467 47.73730469 46.17700195 C43.80870568 49.82498674 40.81370643 51.27306146 35.48461914 51.38574219 C34.62975418 51.40503281 33.77488922 51.42432343 32.89411926 51.44419861 C28.97999557 51.50220162 25.0660509 51.55123339 21.15161133 51.58203125 C19.09252119 51.60358646 17.03352207 51.6376598 14.97485352 51.68457031 C11.99551763 51.75179856 9.01807483 51.7790686 6.03808594 51.7980957 C5.12634109 51.82592636 4.21459625 51.85375702 3.27522278 51.88243103 C-2.64950118 51.86355015 -6.0248515 50.60759303 -10.63412476 46.87316895 C-16.62858238 40.62990174 -16.91667169 32.84199528 -16.82519531 24.61450195 C-16.84904297 23.62514648 -16.87289062 22.63579102 -16.89746094 21.61645508 C-16.88404583 14.8776002 -15.63968075 10.37117393 -11.26269531 5.17700195 C-7.47339398 1.74019377 -5.08123632 0.06438657 0 0 Z " fill="#030200" transform="translate(263.2626953125,413.822998046875)"/>
<path d="M0 0 C0.83491974 -0.01283524 1.66983948 -0.02567047 2.53005981 -0.03889465 C3.43521332 -0.04628159 4.34036682 -0.05366852 5.27294922 -0.0612793 C6.20557587 -0.06935104 7.13820251 -0.07742279 8.09909058 -0.08573914 C10.07792295 -0.0995876 12.0567793 -0.11030633 14.03564453 -0.11816406 C17.04490387 -0.13531153 20.0530458 -0.17918275 23.06201172 -0.22338867 C24.98648282 -0.23352148 26.91096326 -0.24203574 28.83544922 -0.2487793 C30.1749614 -0.27504143 30.1749614 -0.27504143 31.54153442 -0.30183411 C38.19557096 -0.27903475 43.53149878 1.12876185 48.58633423 5.63262939 C53.62397009 10.97369567 52.60801446 18.39228741 52.45263672 25.23950195 C52.45650391 27.11992187 52.45650391 27.11992187 52.46044922 29.03833008 C52.32729042 41.56191491 52.32729042 41.56191491 47.41748047 46.8215332 C43.5929737 49.74615602 41.50175505 51.29012498 36.72167969 51.36987305 C35.84671844 51.38593597 34.9717572 51.4019989 34.07028198 51.41854858 C30.05190835 51.4631152 26.03370016 51.50409731 22.01513672 51.52709961 C19.90076662 51.54361813 17.78645141 51.5708535 15.67236328 51.60913086 C12.61705677 51.66415126 9.56306078 51.68581601 6.50732422 51.70043945 C5.1021907 51.73444351 5.1021907 51.73444351 3.66867065 51.76913452 C-2.72201119 51.74875841 -7.17557863 50.4363835 -12.04736328 46.17700195 C-16.99588947 39.85973908 -16.65164263 32.77736403 -16.54736328 25.05200195 C-16.56283203 23.89829102 -16.57830078 22.74458008 -16.59423828 21.5559082 C-16.55869292 13.85145082 -15.87441951 10.0315251 -10.41455078 4.5324707 C-6.71646472 1.63789548 -4.66833889 0.06249813 0 0 Z " fill="#020201" transform="translate(161.04736328125,208.822998046875)"/>
<path d="M0 0 C0.16361882 20.98387686 0.28700867 41.96764835 0.3626852 62.952034 C0.39875931 72.69577882 0.44792937 82.43912698 0.52807617 92.18261719 C0.59790989 100.67639862 0.64302254 109.16989276 0.65861946 117.6639533 C0.66773492 122.16047074 0.68911275 126.65616637 0.7401104 131.15242004 C0.78775994 135.38795315 0.80225402 139.62232902 0.79175377 143.85810471 C0.79367355 145.40931369 0.80751901 146.96056288 0.83443832 148.51153946 C1.05159893 161.67323315 1.05159893 161.67323315 -3.25428772 166.68273926 C-4.47505892 167.81910962 -5.72163947 168.92882574 -7 170 C-7.8142746 170.8561792 -8.62854919 171.7123584 -9.46749878 172.59448242 C-10.21282867 173.34060791 -10.95815857 174.0867334 -11.72607422 174.85546875 C-12.58321014 175.71575684 -13.44034607 176.57604492 -14.32345581 177.46240234 C-15.22476227 178.36168457 -16.12606873 179.2609668 -17.0546875 180.1875 C-18.0065035 181.13999117 -18.95817115 182.09263062 -19.90969849 183.04541016 C-21.88642437 185.02359796 -23.86491676 186.99999644 -25.84472656 188.97509766 C-28.38697866 191.51159829 -30.92464068 194.05263678 -33.4610424 196.59498596 C-35.41683107 198.55437458 -37.3749781 200.51139226 -39.33386612 202.46768188 C-40.72733685 203.86015993 -42.11879148 205.25465457 -43.51022339 206.64916992 C-44.34844635 207.48424072 -45.18666931 208.31931152 -46.05029297 209.1796875 C-46.7908493 209.91944824 -47.53140564 210.65920898 -48.29440308 211.42138672 C-50 213 -50 213 -51 213 C-52.09864709 207.91045846 -52.73173642 202.75675685 -49.83911133 198.15197754 C-45.9355757 193.36684399 -41.31144843 189.26768197 -36.75 185.125 C-34.71396381 183.22469956 -32.68752073 181.31504338 -30.66778564 179.39743042 C-29.4147233 178.21325743 -28.15089792 177.04033055 -26.87469482 175.88113403 C-26.29439514 175.34302094 -25.71409546 174.80490784 -25.11621094 174.25048828 C-24.6099115 173.79006134 -24.10361206 173.3296344 -23.58197021 172.85525513 C-17.24965801 165.42903776 -17.47145582 159.07305305 -17.62866211 149.59448242 C-17.63794601 148.13187209 -17.64530028 146.66924843 -17.65087891 145.20661926 C-17.66599054 142.06627848 -17.69275773 138.92633095 -17.72810173 135.78615379 C-17.78204192 130.8134931 -17.79781485 125.84116019 -17.80628967 120.86824036 C-17.83533958 106.73067676 -17.90032329 92.59373787 -18.03735352 78.45678711 C-18.11278442 70.64141592 -18.14864362 62.82687879 -18.14132506 55.01113588 C-18.13886909 50.0741975 -18.18437739 45.14083555 -18.2659024 40.20460737 C-18.30500639 37.12373624 -18.29760184 34.04423917 -18.27741241 30.96323967 C-18.2772077 29.54341717 -18.29560896 28.12344023 -18.33480263 26.70415878 C-18.4941271 20.61866201 -18.50349078 15.90911616 -14.64126778 11.00490761 C-11.86990215 8.4518074 -9.05284338 6.20479438 -6 4 C-5.07738845 3.25078876 -4.1547769 2.50157751 -3.20420742 1.7296629 C-1 0 -1 0 0 0 Z " fill="#D74214" transform="translate(495,246)"/>
<path d="M0 0 C0.83491974 -0.01283524 1.66983948 -0.02567047 2.53005981 -0.03889465 C3.43521332 -0.04628159 4.34036682 -0.05366852 5.27294922 -0.0612793 C6.20557587 -0.06935104 7.13820251 -0.07742279 8.09909058 -0.08573914 C10.07792295 -0.0995876 12.0567793 -0.11030633 14.03564453 -0.11816406 C17.04490387 -0.13531153 20.0530458 -0.17918275 23.06201172 -0.22338867 C24.98648282 -0.23352148 26.91096326 -0.24203574 28.83544922 -0.2487793 C30.1749614 -0.27504143 30.1749614 -0.27504143 31.54153442 -0.30183411 C37.48887556 -0.28145617 41.99599234 0.78711831 46.95263672 4.17700195 C52.99352481 10.68257375 52.20084493 16.30512124 52.26513672 24.86450195 C52.30864258 26.76619141 52.30864258 26.76619141 52.35302734 28.70629883 C52.43599725 40.90287547 52.43599725 40.90287547 47.95263672 46.17700195 C42.15084755 50.99440567 37.14738643 51.91449219 29.75732422 51.8059082 C28.80624786 51.80832016 27.85517151 51.81073212 26.87527466 51.81321716 C24.87676803 51.81224286 22.87823301 51.79894956 20.87988281 51.77392578 C17.82898099 51.73951711 14.7809641 51.75331427 11.72998047 51.77270508 C9.78074946 51.76580839 7.83152587 51.75613761 5.88232422 51.7434082 C4.97594208 51.74836807 4.06955994 51.75332794 3.13571167 51.75843811 C-3.48859609 51.63569058 -6.88950832 50.2448468 -11.69189453 45.5793457 C-16.878718 39.07413232 -16.294541 33.3904327 -16.35986328 25.36450195 C-16.38886719 24.18823242 -16.41787109 23.01196289 -16.44775391 21.80004883 C-16.52698495 11.01853202 -16.52698495 11.01853202 -12.04736328 6.17700195 C-8.39656396 2.50000073 -5.24177662 0.07017512 0 0 Z " fill="#020100" transform="translate(50.04736328125,413.822998046875)"/>
<path d="M0 0 C0.6737265 -0.00058411 1.347453 -0.00116821 2.04159546 -0.00177002 C4.25507223 0.00100331 6.46718022 0.03205616 8.68041992 0.06347656 C10.22026331 0.07094171 11.76011623 0.07663335 13.29997253 0.08062744 C17.34274766 0.09586244 21.38494327 0.13512507 25.42749023 0.17944336 C29.55664227 0.22044261 33.68588841 0.23864834 37.81518555 0.25878906 C45.90985183 0.30162209 54.00404805 0.36984671 62.09838867 0.45410156 C61.15349058 1.57622919 60.20575327 2.69596642 59.25683594 3.81469727 C58.4656411 4.75041313 58.4656411 4.75041313 57.65846252 5.70503235 C55.64236232 7.96537329 53.42845086 9.78893749 51.03588867 11.64160156 C46.71274696 15.08486369 42.62417059 18.67527085 38.59838867 22.45410156 C33.78073944 26.96589089 28.83530091 31.22760363 23.66479492 35.33691406 C20.34542272 38.07526982 17.2934944 41.0617511 14.26635742 44.11816406 C11.23519263 45.98601696 9.56066759 45.08247108 6.09838867 44.45410156 C3.85346081 44.3440386 1.60606481 44.27891714 -0.64135742 44.2487793 C-1.28596924 44.2388797 -1.93058105 44.2289801 -2.59472656 44.21878052 C-4.70479787 44.18743816 -6.81489162 44.16251722 -8.92504883 44.13769531 C-10.39621534 44.11710216 -11.86737625 44.0961051 -13.33853149 44.07472229 C-17.19520507 44.01974524 -21.05192987 43.97022938 -24.90869141 43.921875 C-28.85038772 43.87148111 -32.7920104 43.81588877 -36.73364258 43.76074219 C-44.45623633 43.65345903 -52.17889165 43.55194887 -59.90161133 43.45410156 C-59.90161133 42.79410156 -59.90161133 42.13410156 -59.90161133 41.45410156 C-58.3311932 40.13618203 -56.68969627 38.90296497 -55.02661133 37.70410156 C-53.91600273 36.89198379 -52.8067098 36.07806484 -51.69848633 35.26269531 C-50.78486328 34.59149658 -50.78486328 34.59149658 -49.8527832 33.90673828 C-46.28388416 31.24971259 -42.78326753 28.50493052 -39.27661133 25.76660156 C-38.52178467 25.1779834 -37.76695801 24.58936523 -36.98925781 23.98291016 C-35.42774823 22.76510642 -33.86647207 21.54700333 -32.30541992 20.32861328 C-29.84604014 18.41076665 -27.38403494 16.4963411 -24.92114258 14.58300781 C-24.11177246 13.95418701 -23.30240234 13.32536621 -22.46850586 12.67749023 C-20.92142837 11.47567168 -19.37423423 10.27400328 -17.8269043 9.07250977 C-17.1232373 8.52554443 -16.41957031 7.9785791 -15.69458008 7.41503906 C-15.08122803 6.93856934 -14.46787598 6.46209961 -13.8359375 5.97119141 C-11.80474713 4.42564969 -11.80474713 4.42564969 -9.71206665 2.38766479 C-6.20487294 -0.02524701 -4.2289236 -0.03092449 0 0 Z " fill="#F17A00" transform="translate(315.901611328125,29.5458984375)"/>
<path d="M0 0 C1.11474701 0.00444122 2.22949402 0.00888245 3.37802124 0.01345825 C5.26975571 0.01368484 5.26975571 0.01368484 7.19970703 0.01391602 C8.58124956 0.02413006 9.96279048 0.03456206 11.34432983 0.04519653 C12.7539449 0.04892615 14.16356256 0.05177337 15.57318115 0.05377197 C19.28536116 0.06141248 22.99738494 0.08106442 26.70950317 0.10317993 C30.4966114 0.12362945 34.28374483 0.13277177 38.07089233 0.14285278 C45.50325526 0.16431004 52.93548942 0.19845087 60.36776733 0.24050903 C52.10192633 8.57187668 42.93490963 15.64163759 33.5274353 22.61965942 C26.90733546 27.54398184 20.46859648 32.6819239 14.05844116 37.87527466 C13.5005188 38.325802 12.94259644 38.77632935 12.36776733 39.24050903 C11.65024292 39.91930115 10.93271851 40.59809326 10.19345093 41.29745483 C6.67573679 43.71637719 4.70662061 43.72561948 0.46615601 43.6946106 C-0.54443375 43.69548676 -0.54443375 43.69548676 -1.57543945 43.69638062 C-3.78891622 43.69360729 -6.00102422 43.66255443 -8.21426392 43.63113403 C-9.7541073 43.62366888 -11.29396022 43.61797724 -12.83381653 43.61398315 C-16.87659166 43.59874816 -20.91878726 43.55948553 -24.96133423 43.51516724 C-29.09048626 43.47416799 -33.21973241 43.45596226 -37.34902954 43.43582153 C-45.44369582 43.39298851 -53.53789205 43.32476388 -61.63223267 43.24050903 C-59.30186141 40.88098494 -57.09459292 38.71634192 -54.33926392 36.86550903 C-53.71825806 36.44422729 -53.0972522 36.02294556 -52.45742798 35.58889771 C-51.4611438 34.92144531 -51.4611438 34.92144531 -50.44473267 34.24050903 C-48.99746992 33.25839057 -47.55087653 32.27528517 -46.10488892 31.29129028 C-45.36255005 30.78678345 -44.62021118 30.28227661 -43.8553772 29.76248169 C-40.33814694 27.35457334 -36.85940423 24.89326613 -33.38223267 22.42800903 C-28.66076265 19.08169213 -23.93168248 15.7473866 -19.18301392 12.43972778 C-18.2700354 11.80333374 -17.35705688 11.1669397 -16.41641235 10.51126099 C-14.63044584 9.26726834 -12.84337193 8.02486374 -11.05508423 6.78421021 C-10.24651978 6.22064819 -9.43795532 5.65708618 -8.60488892 5.07644653 C-7.88567261 4.57677368 -7.1664563 4.07710083 -6.42544556 3.56228638 C-1.81795982 0.16610832 -1.81795982 0.16610832 0 0 Z " fill="#F07900" transform="translate(220.63223266601563,29.759490966796875)"/>
<path d="M0 0 C0.33 13.86 0.66 27.72 1 42 C-19.79 42 -40.58 42 -62 42 C-59.26637027 39.26637027 -57.2451637 37.33015087 -54.15625 35.2578125 C-53.4147168 34.75620605 -52.67318359 34.25459961 -51.90917969 33.73779297 C-51.11415039 33.20557129 -50.31912109 32.67334961 -49.5 32.125 C-47.78584357 30.96444917 -46.07232253 29.8029594 -44.359375 28.640625 C-43.03389648 27.7424707 -43.03389648 27.7424707 -41.68164062 26.82617188 C-37.34820255 23.87514158 -33.0463 20.87975386 -28.75 17.875 C-27.92113281 17.29685547 -27.09226563 16.71871094 -26.23828125 16.12304688 C-22.29708498 13.361719 -18.3914605 10.56650025 -14.546875 7.671875 C-13.86012695 7.15641113 -13.17337891 6.64094727 -12.46582031 6.10986328 C-11.19282437 5.14831816 -9.92607323 4.17842565 -8.66699219 3.19873047 C-5.39074936 0.72035356 -4.26042478 0 0 0 Z " fill="#F27A00" transform="translate(111,235)"/>
<path d="M0 0 C0.66914429 -0.00004028 1.33828857 -0.00008057 2.02770996 -0.00012207 C3.43637533 0.00521721 4.84504154 0.02273242 6.25341797 0.05175781 C8.40034748 0.09363487 10.5441368 0.09282135 12.69140625 0.0859375 C24.3662096 0.1751205 24.3662096 0.1751205 28.90625 3.59375 C30.43471661 6.65068322 30.13867445 9.22359547 29.90625 12.59375 C28.14609869 15.7787857 27.40734084 16.42671972 23.90625 17.59375 C19.51052128 17.86662645 15.11296314 17.90697326 10.70996094 17.94384766 C9.26090436 17.96041016 7.8119296 17.98770506 6.36328125 18.02587891 C4.26519784 18.08081506 2.16901937 18.10254062 0.0703125 18.1171875 C-1.18313965 18.13700684 -2.4365918 18.15682617 -3.72802734 18.17724609 C-8.00778597 17.43528881 -9.4575441 15.97964042 -12.09375 12.59375 C-12.71875 9.09375 -12.71875 9.09375 -12.09375 5.59375 C-8.38465694 0.84763186 -5.9467394 -0.03398137 0 0 Z " fill="#020100" transform="translate(166.09375,447.40625)"/>
<path d="M0 0 C0.69134033 -0.00478363 1.38268066 -0.00956726 2.0949707 -0.01449585 C3.55064176 -0.01788486 5.00638996 -0.008752 6.46191406 0.01220703 C8.68207497 0.03899704 10.89718261 0.01243603 13.1171875 -0.01953125 C14.53646942 -0.01622696 15.95574821 -0.00982031 17.375 0 C18.65761719 0.00563965 19.94023437 0.0112793 21.26171875 0.01708984 C25.55258899 0.82743806 27.04152265 2.25027922 29.6875 5.6640625 C30.25 9.2265625 30.25 9.2265625 29.6875 12.6640625 C27.82041495 15.02903689 26.36688569 16.32436965 23.6875 17.6640625 C19.31771088 17.94561648 14.94428113 17.97770863 10.56665039 18.01416016 C9.11075842 18.03070254 7.6549471 18.05797086 6.19946289 18.09619141 C4.09478877 18.15114373 1.99201493 18.17285866 -0.11328125 18.1875 C-1.37309814 18.20731934 -2.63291504 18.22713867 -3.9309082 18.24755859 C-8.22227239 17.50708062 -9.67113791 16.06014356 -12.3125 12.6640625 C-12.9375 9.1640625 -12.9375 9.1640625 -12.3125 5.6640625 C-8.56305551 0.84272007 -6.01911794 0.02646597 0 0 Z " fill="#030100" transform="translate(166.3125,413.3359375)"/>
<path d="M0 0 C0.66677261 -0.00478363 1.33354523 -0.00956726 2.02052307 -0.01449585 C3.42492036 -0.01788447 4.82939764 -0.00875426 6.23364258 0.01220703 C8.37046371 0.03895681 10.50201455 0.01245832 12.63867188 -0.01953125 C23.99161738 -0.04918319 23.99161738 -0.04918319 27.87109375 2.984375 C29.94140625 5.6640625 29.94140625 5.6640625 30.62890625 9.1640625 C29.75739793 13.60083213 28.46182249 14.87583182 24.94140625 17.6640625 C22.2037913 18.15302364 20.10030608 18.34583449 17.375 18.29296875 C16.65909195 18.29538071 15.9431839 18.29779266 15.20558167 18.30027771 C13.69860266 18.29930196 12.19158661 18.28597292 10.68481445 18.26098633 C8.38173568 18.22660474 6.08248289 18.2403533 3.77929688 18.25976562 C2.31118164 18.25286827 0.84307626 18.24319687 -0.625 18.23046875 C-1.65325645 18.23790855 -1.65325645 18.23790855 -2.70228577 18.24549866 C-5.99815038 18.16448216 -7.80702411 17.84934578 -10.48803711 15.87475586 C-12.37885382 13.21326894 -12.57834675 10.99137076 -12.6875 7.76171875 C-10.78691871 1.42251285 -6.01048576 0.02746126 0 0 Z " fill="#040200" transform="translate(277.05859375,242.3359375)"/>
<path d="M0 0 C1.00727394 0.00349709 1.00727394 0.00349709 2.03489685 0.00706482 C3.44779247 0.01676701 4.86065125 0.03847336 6.27319336 0.0715332 C8.43076409 0.12102884 10.58605275 0.13302179 12.74414062 0.13867188 C24.5381232 0.25931174 24.5381232 0.25931174 27.87109375 2.55859375 C30.37141029 6.30906857 30.40712929 8.11715641 29.87109375 12.55859375 C27.23255557 15.98060353 25.73695493 17.39507236 21.4453125 18.20556641 C20.16269531 18.21120605 18.88007813 18.2168457 17.55859375 18.22265625 C16.52158325 18.2298317 16.52158325 18.2298317 15.46362305 18.2371521 C14.00795199 18.24054111 12.55220379 18.23140825 11.09667969 18.21044922 C8.87651878 18.18365921 6.66141114 18.21022022 4.44140625 18.2421875 C3.02212433 18.23888321 1.60284554 18.23247656 0.18359375 18.22265625 C-1.09902344 18.2170166 -2.38164062 18.21137695 -3.703125 18.20556641 C-7.99295926 17.39541384 -9.47855451 15.96663282 -12.12890625 12.55859375 C-12.75390625 9.05859375 -12.75390625 9.05859375 -12.12890625 5.55859375 C-8.40877941 0.78945622 -5.96832526 -0.06439113 0 0 Z " fill="#030100" transform="translate(277.12890625,208.44140625)"/>
<path d="M0 0 C0.66914429 -0.00004028 1.33828857 -0.00008057 2.02770996 -0.00012207 C3.43637533 0.00521721 4.84504154 0.02273242 6.25341797 0.05175781 C8.40034748 0.09363487 10.5441368 0.09282135 12.69140625 0.0859375 C25.49625282 0.18375282 25.49625282 0.18375282 29.90625 4.59375 C30.1796875 6.51953125 30.1796875 6.51953125 30.28125 8.90625 C30.33023438 9.68613281 30.37921875 10.46601563 30.4296875 11.26953125 C29.64011739 14.77545824 27.88061166 15.67494307 24.90625 17.59375 C21.46459961 18.11132812 21.46459961 18.11132812 17.55859375 18.125 C16.86488174 18.1288269 16.17116974 18.13265381 15.45643616 18.13659668 C13.99657735 18.13930756 12.5366693 18.13200402 11.0769043 18.11523438 C8.84639136 18.09377541 6.61908651 18.11507559 4.38867188 18.140625 C2.96613875 18.13798221 1.54360762 18.13285822 0.12109375 18.125 C-1.16676025 18.12048828 -2.45461426 18.11597656 -3.78149414 18.11132812 C-7.6168903 17.5120033 -8.76002314 16.62289282 -11.09375 13.59375 C-12.53805855 10.70513291 -12.47063506 8.79727299 -12.09375 5.59375 C-8.38659525 0.8492881 -5.94213643 -0.03395507 0 0 Z " fill="#020100" transform="translate(379.09375,447.40625)"/>
<path d="M0 0 C1.0370105 -0.00361794 1.0370105 -0.00361794 2.0949707 -0.00730896 C3.55067708 -0.00633331 5.00642186 0.00699336 6.46191406 0.03198242 C8.6816291 0.06631544 10.8973626 0.05262782 13.1171875 0.03320312 C14.53647516 0.04010211 15.95575262 0.04977499 17.375 0.0625 C18.65761719 0.07337646 19.94023437 0.08425293 21.26171875 0.09545898 C25.21315255 0.7107585 26.89252903 1.8211414 29.6875 4.62890625 C30.78593897 8.3289112 30.17999268 11.71427699 28.375 15.06640625 C23.83975332 19.26570873 16.32848124 17.96853381 10.49121094 18.03393555 C9.04207554 18.05553293 7.59307122 18.08965806 6.14453125 18.13647461 C4.04628819 18.20359737 1.9507285 18.23094234 -0.1484375 18.25 C-1.40188965 18.27505615 -2.6553418 18.3001123 -3.94677734 18.32592773 C-8.681027 17.34549231 -9.67205881 15.60929582 -12.3125 11.62890625 C-12.9375 8.56640625 -12.9375 8.56640625 -12.3125 5.62890625 C-8.52791767 0.82229143 -6.0378628 -0.00341336 0 0 Z " fill="#030100" transform="translate(379.3125,413.37109375)"/>
<path d="M0 0 C11.22 0 22.44 0 34 0 C34 5.61 34 11.22 34 17 C22.78 17 11.56 17 0 17 C0 11.39 0 5.78 0 0 Z " fill="#F2F2F2" transform="translate(265,431)"/>
<path d="M0 0 C11.22 0 22.44 0 34 0 C34 5.61 34 11.22 34 17 C22.78 17 11.56 17 0 17 C0 11.39 0 5.78 0 0 Z " fill="#F3F3F3" transform="translate(51,431)"/>
<path d="M0 0 C11.22 0 22.44 0 34 0 C34 5.61 34 11.22 34 17 C22.78 17 11.56 17 0 17 C0 11.39 0 5.78 0 0 Z " fill="#F2F2F2" transform="translate(162,226)"/>
</svg>
